,
Brought to you by  http://www.scenetime.com/signup.php
 
 Hottest scene tracker on the net !!!   
 
No fake torrents from scenebalance 
shame on those who comment fake before downloading my torrents

    seed back for speed


 



...................................NFO:.................................................[size=2][b][color=#00FF00]Justin Bieber Never Say Never 2011 PPVRIP XViD-SCRN

   General
      Justin Bieber Never Say Never 2011 PPVRIP XViD-SCRN.avi
      Format : AVI
      Format/Info : Audio Video Interleave
      File size : 1.23 GiB
      Duration : 1h 44mn
      Overall bit rate : 1 687 Kbps
   Video #0
      ID : 0
      Format : MPEG-4 Visual
      Format profile : AdvancedSimple@L5
      Format settings, BVOP : Yes
      Format settings, QPel : Yes
      Format settings, GMC : No warppoints
      Format settings, Matrix : Default (H.263)
      Codec ID : XVID
      Codec ID/Hint : XviD
      Duration : 1h 44mn
      Bit rate : 1 358 Kbps
      Width : 720 pixels
      Height : 480 pixels
      Display aspect ratio : 1.500
      Frame rate : 29.970 fps
      Standard : NTSC
      Resolution : 24 bits
      Colorimetry : 4:2:0
      Scan type : Progressive
      Bits/(Pixel*Frame) : 0.131
      Stream size : 1 013 MiB (81%)
   
   Audio #1
      ID : 1
      Format : AC-3
      Format/Info : Audio Coding 3
      Codec ID : 2000
      Duration : 1h 44mn
      Bit rate mode : Constant
      Bit rate : 320 Kbps
      Channel(s) : 2 channels
      Channel positions : L R
      Sampling rate : 48.0 KHz
      Stream size : 239 MiB (19%)
      Alignment : Aligned on interleaves
      Interleave, duration : 64 ms (1.92 video frames)
      Interleave, preload duration : 192 ms
   [/color][/b][/size]